<?xml version="1.0" standalone="no"?>
<svg xmlns:xlink="http://www.w3.org/1999/xlink" id="wave" style="transform:rotate(180deg); transition: 0.3s" viewBox="0 0 1440 100" version="1.1" xmlns="http://www.w3.org/2000/svg"><defs><linearGradient id="sw-gradient-0" x1="0" x2="0" y1="1" y2="0"><stop stop-color="rgba(255, 249, 234, 1)" offset="0%"/><stop stop-color="rgba(255, 249, 234, 1)" offset="100%"/></linearGradient></defs><path style="transform:translate(0, 0px); opacity:1" fill="url(#sw-gradient-0)" d="M0,30L20,25C40,20,80,10,120,13.3C160,17,200,33,240,36.7C280,40,320,30,360,23.3C400,17,440,13,480,18.3C520,23,560,37,600,45C640,53,680,57,720,51.7C760,47,800,33,840,26.7C880,20,920,20,960,25C1000,30,1040,40,1080,38.3C1120,37,1160,23,1200,15C1240,7,1280,3,1320,16.7C1360,30,1400,60,1440,71.7C1480,83,1520,77,1560,71.7C1600,67,1640,63,1680,61.7C1720,60,1760,60,1800,56.7C1840,53,1880,47,1920,38.3C1960,30,2000,20,2040,13.3C2080,7,2120,3,2160,11.7C2200,20,2240,40,2280,45C2320,50,2360,40,2400,45C2440,50,2480,70,2520,75C2560,80,2600,70,2640,61.7C2680,53,2720,47,2760,41.7C2800,37,2840,33,2860,31.7L2880,30L2880,100L2860,100C2840,100,2800,100,2760,100C2720,100,2680,100,2640,100C2600,100,2560,100,2520,100C2480,100,2440,100,2400,100C2360,100,2320,100,2280,100C2240,100,2200,100,2160,100C2120,100,2080,100,2040,100C2000,100,1960,100,1920,100C1880,100,1840,100,1800,100C1760,100,1720,100,1680,100C1640,100,1600,100,1560,100C1520,100,1480,100,1440,100C1400,100,1360,100,1320,100C1280,100,1240,100,1200,100C1160,100,1120,100,1080,100C1040,100,1000,100,960,100C920,100,880,100,840,100C800,100,760,100,720,100C680,100,640,100,600,100C560,100,520,100,480,100C440,100,400,100,360,100C320,100,280,100,240,100C200,100,160,100,120,100C80,100,40,100,20,100L0,100Z"/></svg>